<?xml version="1.0" encoding="UTF-8" standalone="no"?>
<svg version="1.1" xmlns="http://www.w3.org/2000/svg" xmlns:xlink="http://www.w3.org/1999/xlink" class="thumbnail-icon" viewBox="0 0 200 200">
<g data-paper-data="{&quot;fillRule&quot;:&quot;nonzero&quot;,&quot;isIcon&quot;:true,&quot;iconStyle&quot;:&quot;standalone&quot;,&quot;selectedEffects&quot;:{&quot;container&quot;:&quot;circle_simple_filled&quot;,&quot;transformation&quot;:&quot;&quot;,&quot;pattern&quot;:&quot;&quot;},&quot;bounds&quot;:{&quot;x&quot;:210.74185001062182,&quot;y&quot;:115,&quot;width&quot;:128.5162999787563,&quot;height&quot;:128.51629997875636},&quot;iconType&quot;:&quot;icon&quot;,&quot;rawIconId&quot;:&quot;ae48cddd-5f83-42c0-a8d5-b81328c82efe&quot;,&quot;isDetailed&quot;:false,&quot;blockLetter&quot;:&quot;O&quot;,&quot;blockLetterId&quot;:0,&quot;relativeBoundsIconToContainer&quot;:{&quot;top&quot;:-0.01968763228932437,&quot;left&quot;:0.036952042270699426},&quot;widthRatioIconToContainer&quot;:0.6690410524663131,&quot;heightRatioIconToContainer&quot;:0.793643004111878}">
<path d="M0,100c0,-55.22847 44.77153,-100 100,-100c55.22847,0 100,44.77153 100,100c0,55.22847 -44.77153,100 -100,100c-55.22847,0 -100,-44.77153 -100,-100zM82.23193,16.69817h-13.49193v16.6665h13.49193zM154.45344,90.50697c11.74592,-3.17457 15.5554,-11.74592 15.5554,-24.12675c0,-12.06337 -2.2222,-19.04743 -8.09516,-24.60293c-5.87296,-5.23804 -12.85702,-6.98406 -30.15843,-6.98406h-91.26895v118.41154h96.50699c14.12685,0 22.38073,-2.38093 29.04733,-8.57134c6.03169,-5.5555 8.25389,-13.3332 8.25389,-26.50768c0,-16.6665 -7.30152,-24.12675 -19.84108,-27.61878zM130.64415,141.30012h-76.82464v-44.28528h13.49193v-11.26973h-13.49193v-39.04724h76.34846c19.36489,0 25.39658,4.92059 25.39658,19.9998c0,17.7776 -9.9999,18.25379 -33.33301,19.04743h-38.57105v11.26973h38.57105c28.09496,0 37.45995,5.07932 37.45995,21.74582c0,18.09506 -5.5555,22.53946 -29.04733,22.53946zM82.23193,48.28516h-13.49193v91.42767h13.49193zM68.73999,154.79206v20.63472h80.31667l-0.15873,-12.38083h-66.66601v-8.25389z" fill-rule="nonzero">
</path>
</g>
</svg>